<svg width="132" height="78" viewBox="0 0 132 78" fill="none" xmlns="http://www.w3.org/2000/svg">
<path fill-rule="evenodd" clip-rule="evenodd" d="M60.2635 14.9483C58.5602 20.9549 57.5 29.2819 57.5 38.5C57.5 47.7181 58.5602 56.0451 60.2635 62.0517C61.1162 65.0584 62.1222 67.4553 63.2175 69.089C64.325 70.7408 65.4439 71.5 66.5 71.5C67.5562 71.5 68.675 70.7408 69.7826 69.089C70.8779 67.4553 71.8839 65.0584 72.7365 62.0517C74.4399 56.0451 75.5 47.7181 75.5 38.5C75.5 29.2819 74.4399 20.9549 72.7365 14.9483C71.8839 11.9416 70.8779 9.54472 69.7826 7.91104C68.675 6.25915 67.5562 5.5 66.5 5.5C65.4439 5.5 64.325 6.25915 63.2175 7.91104C62.1222 9.54472 61.1162 11.9416 60.2635 14.9483ZM62.3869 7.35415C63.5525 5.61565 64.9328 4.5 66.5 4.5C68.0672 4.5 69.4476 5.61565 70.6132 7.35416C71.791 9.11086 72.8321 11.6199 73.6986 14.6755C75.4335 20.7935 76.5 29.2166 76.5 38.5C76.5 47.7834 75.4335 56.2065 73.6986 62.3245C72.8321 65.3801 71.791 67.8891 70.6132 69.6458C69.4476 71.3843 68.0672 72.5 66.5 72.5C64.9328 72.5 63.5525 71.3843 62.3869 69.6458C61.2091 67.8891 60.168 65.3801 59.3015 62.3245C57.5665 56.2065 56.5 47.7834 56.5 38.5C56.5 29.2166 57.5665 20.7935 59.3015 14.6755C60.168 11.6199 61.2091 9.11086 62.3869 7.35415Z" fill="#333333"/>
<path d="M59.8513 17.3683C61.8492 17.3683 63.4687 15.7488 63.4687 13.7509C63.4687 11.7531 61.8492 10.1335 59.8513 10.1335C57.8535 10.1335 56.2339 11.7531 56.2339 13.7509C56.2339 15.7488 57.8535 17.3683 59.8513 17.3683Z" fill="#38C1C9"/>
<path fill-rule="evenodd" clip-rule="evenodd" d="M59.8513 10.6335C58.1296 10.6335 56.7339 12.0292 56.7339 13.7509C56.7339 15.4726 58.1296 16.8683 59.8513 16.8683C61.573 16.8683 62.9687 15.4726 62.9687 13.7509C62.9687 12.0292 61.573 10.6335 59.8513 10.6335ZM55.7339 13.7509C55.7339 11.477 57.5774 9.63354 59.8513 9.63354C62.1253 9.63354 63.9687 11.477 63.9687 13.7509C63.9687 16.0249 62.1253 17.8683 59.8513 17.8683C57.5774 17.8683 55.7339 16.0249 55.7339 13.7509Z" fill="#333333"/>
<path fill-rule="evenodd" clip-rule="evenodd" d="M42.2473 32.8319C46.5974 37.3103 53.2787 42.3918 61.2619 47.0009C69.245 51.61 76.9864 54.8554 83.0399 56.3835C86.0702 57.1485 88.6489 57.4758 90.6114 57.344C92.5957 57.2108 93.8126 56.6215 94.3406 55.7068C94.8687 54.7921 94.7707 53.4436 93.8939 51.6585C93.0268 49.8931 91.454 47.8234 89.2764 45.5816C84.9263 41.1031 78.245 36.0215 70.2619 31.4125C62.2787 26.8034 54.5373 23.5581 48.4837 22.03C45.4535 21.265 42.8748 20.9378 40.9123 21.0695C38.9279 21.2028 37.7111 21.7921 37.183 22.7068C36.6549 23.6215 36.7529 24.97 37.6297 26.7551C38.4969 28.5205 40.0697 30.5901 42.2473 32.8319ZM36.7322 27.196C35.8094 25.3173 35.5333 23.564 36.3169 22.2068C37.1005 20.8496 38.7569 20.212 40.8453 20.0718C42.9555 19.9301 45.649 20.283 48.7285 21.0604C54.8944 22.6168 62.7222 25.9047 70.7619 30.5464C78.8015 35.1881 85.5629 40.3233 89.9937 44.8849C92.2067 47.1631 93.859 49.3193 94.7915 51.2176C95.7143 53.0963 95.9903 54.8496 95.2067 56.2068C94.4231 57.564 92.7667 58.2016 90.6783 58.3418C88.5681 58.4834 85.8746 58.1305 82.7952 57.3531C76.6293 55.7966 68.8015 52.5086 60.7619 47.8669C52.7222 43.2252 45.9609 38.0901 41.53 33.5286C39.317 31.2504 37.6646 29.0943 36.7322 27.196Z" fill="#333333"/>
<path fill-rule="evenodd" clip-rule="evenodd" d="M37.6298 51.7406C36.753 53.5257 36.655 54.8742 37.183 55.7889C37.7111 56.7036 38.928 57.2929 40.9123 57.4262C42.8748 57.5579 45.4535 57.2307 48.4837 56.4657C54.5372 54.9376 62.2786 51.6923 70.2618 47.0832C78.2449 42.4741 84.9262 37.3925 89.2764 32.9141C91.454 30.6723 93.0268 28.6026 93.8939 26.8372C94.7708 25.0521 94.8688 23.7036 94.3407 22.7889C93.8126 21.8742 92.5958 21.2849 90.6114 21.1517C88.6489 21.0199 86.0702 21.3472 83.0399 22.1122C76.9864 23.6403 69.2449 26.8857 61.2618 31.4948C53.2786 36.1038 46.5974 41.1854 42.2472 45.6638C40.0697 47.9056 38.4969 49.9752 37.6298 51.7406ZM41.5299 44.9671C45.9608 40.4056 52.7221 35.2704 60.7618 30.6287C68.8014 25.987 76.6293 22.6991 82.7952 21.1426C85.8747 20.3652 88.5681 20.0123 90.6784 20.1539C92.7668 20.2941 94.4231 20.9317 95.2067 22.2889C95.9903 23.6461 95.7143 25.3994 94.7915 27.2781C93.8591 29.1764 92.2067 31.3326 89.9937 33.6108C85.5628 38.1724 78.8014 43.3075 70.7618 47.9492C62.7221 52.5909 54.8943 55.8788 48.7285 57.4353C45.649 58.2127 42.9556 58.5656 40.8453 58.4239C38.7569 58.2837 37.1006 57.6461 36.317 56.2889C35.5334 54.9317 35.8094 53.1785 36.7322 51.2998C37.6646 49.4014 39.317 47.2453 41.5299 44.9671Z" fill="#333333"/>
<path d="M48.0055 60.5762C50.0033 60.5762 51.6229 58.9566 51.6229 56.9588C51.6229 54.961 50.0033 53.3414 48.0055 53.3414C46.0077 53.3414 44.3881 54.961 44.3881 56.9588C44.3881 58.9566 46.0077 60.5762 48.0055 60.5762Z" fill="#B5F3F2"/>
<path fill-rule="evenodd" clip-rule="evenodd" d="M48.0055 53.8414C46.2838 53.8414 44.8881 55.2371 44.8881 56.9588C44.8881 58.6805 46.2838 60.0762 48.0055 60.0762C49.7272 60.0762 51.1229 58.6805 51.1229 56.9588C51.1229 55.2371 49.7272 53.8414 48.0055 53.8414ZM43.8881 56.9588C43.8881 54.6849 45.7315 52.8414 48.0055 52.8414C50.2795 52.8414 52.1229 54.6849 52.1229 56.9588C52.1229 59.2328 50.2795 61.0762 48.0055 61.0762C45.7315 61.0762 43.8881 59.2328 43.8881 56.9588Z" fill="#333333"/>
<path d="M91.5927 49.6011C93.5905 49.6011 95.2101 47.9815 95.2101 45.9837C95.2101 43.9859 93.5905 42.3663 91.5927 42.3663C89.5948 42.3663 87.9753 43.9859 87.9753 45.9837C87.9753 47.9815 89.5948 49.6011 91.5927 49.6011Z" fill="#FFEF85"/>
<path fill-rule="evenodd" clip-rule="evenodd" d="M91.5927 42.8663C89.871 42.8663 88.4753 44.262 88.4753 45.9837C88.4753 47.7054 89.871 49.1011 91.5927 49.1011C93.3144 49.1011 94.7101 47.7054 94.7101 45.9837C94.7101 44.262 93.3144 42.8663 91.5927 42.8663ZM87.4753 45.9837C87.4753 43.7097 89.3187 41.8663 91.5927 41.8663C93.8666 41.8663 95.7101 43.7097 95.7101 45.9837C95.7101 48.2577 93.8666 50.1011 91.5927 50.1011C89.3187 50.1011 87.4753 48.2577 87.4753 45.9837Z" fill="#333333"/>
<path d="M66.5926 44.3363C69.8069 44.3363 72.4126 43.4057 72.4126 42.2577C72.4126 41.1097 69.8069 40.1791 66.5926 40.1791C63.3782 40.1791 60.7725 41.1097 60.7725 42.2577C60.7725 43.4057 63.3782 44.3363 66.5926 44.3363Z" fill="#FFAE00"/>
<path fill-rule="evenodd" clip-rule="evenodd" d="M61.5524 41.8306C61.318 42.0285 61.2725 42.1749 61.2725 42.2577C61.2725 42.3404 61.318 42.4868 61.5524 42.6847C61.7845 42.8807 62.1499 43.0797 62.6453 43.2566C63.6317 43.6089 65.0272 43.8363 66.5926 43.8363C68.1579 43.8363 69.5535 43.6089 70.5398 43.2566C71.0352 43.0797 71.4006 42.8807 71.6327 42.6847C71.8671 42.4868 71.9126 42.3404 71.9126 42.2577C71.9126 42.1749 71.8671 42.0285 71.6327 41.8306C71.4006 41.6347 71.0352 41.4357 70.5398 41.2588C69.5535 40.9065 68.1579 40.6791 66.5926 40.6791C65.0272 40.6791 63.6317 40.9065 62.6453 41.2588C62.1499 41.4357 61.7845 41.6347 61.5524 41.8306ZM62.309 40.317C63.4291 39.917 64.9436 39.6791 66.5926 39.6791C68.2415 39.6791 69.7561 39.917 70.8762 40.317C71.434 40.5163 71.9209 40.7652 72.2779 41.0666C72.6325 41.366 72.9126 41.7664 72.9126 42.2577C72.9126 42.7489 72.6325 43.1493 72.2779 43.4488C71.9209 43.7502 71.434 43.9991 70.8762 44.1983C69.7561 44.5984 68.2415 44.8363 66.5926 44.8363C64.9436 44.8363 63.4291 44.5984 62.309 44.1983C61.7511 43.9991 61.2642 43.7502 60.9073 43.4488C60.5526 43.1493 60.2725 42.7489 60.2725 42.2577C60.2725 41.7664 60.5526 41.366 60.9073 41.0666C61.2642 40.7652 61.7511 40.5163 62.309 40.317Z" fill="#333333"/>
<path d="M66.5926 41.8419C69.8069 41.8419 72.4126 40.9113 72.4126 39.7633C72.4126 38.6153 69.8069 37.6847 66.5926 37.6847C63.3782 37.6847 60.7725 38.6153 60.7725 39.7633C60.7725 40.9113 63.3782 41.8419 66.5926 41.8419Z" fill="#FFAE00"/>
<path fill-rule="evenodd" clip-rule="evenodd" d="M61.5524 39.3362C61.318 39.5342 61.2725 39.6806 61.2725 39.7633C61.2725 39.846 61.318 39.9924 61.5524 40.1904C61.7845 40.3863 62.1499 40.5853 62.6453 40.7622C63.6317 41.1145 65.0272 41.3419 66.5926 41.3419C68.1579 41.3419 69.5535 41.1145 70.5398 40.7622C71.0352 40.5853 71.4006 40.3863 71.6327 40.1904C71.8671 39.9924 71.9126 39.846 71.9126 39.7633C71.9126 39.6806 71.8671 39.5342 71.6327 39.3362C71.4006 39.1403 71.0352 38.9413 70.5398 38.7644C69.5535 38.4121 68.1579 38.1847 66.5926 38.1847C65.0272 38.1847 63.6317 38.4121 62.6453 38.7644C62.1499 38.9413 61.7845 39.1403 61.5524 39.3362ZM62.309 37.8226C63.4291 37.4226 64.9436 37.1847 66.5926 37.1847C68.2415 37.1847 69.7561 37.4226 70.8762 37.8226C71.434 38.0219 71.9209 38.2708 72.2779 38.5722C72.6325 38.8716 72.9126 39.2721 72.9126 39.7633C72.9126 40.2545 72.6325 40.655 72.2779 40.9544C71.9209 41.2558 71.434 41.5047 70.8762 41.704C69.7561 42.104 68.2415 42.3419 66.5926 42.3419C64.9436 42.3419 63.4291 42.104 62.309 41.704C61.7511 41.5047 61.2642 41.2558 60.9073 40.9544C60.5526 40.655 60.2725 40.2545 60.2725 39.7633C60.2725 39.2721 60.5526 38.8716 60.9073 38.5722C61.2642 38.2708 61.7511 38.0219 62.309 37.8226Z" fill="#333333"/>
<path d="M66.5926 39.3476C69.8069 39.3476 72.4126 38.417 72.4126 37.269C72.4126 36.1211 69.8069 35.1904 66.5926 35.1904C63.3782 35.1904 60.7725 36.1211 60.7725 37.269C60.7725 38.417 63.3782 39.3476 66.5926 39.3476Z" fill="#FFAE00"/>
<path fill-rule="evenodd" clip-rule="evenodd" d="M61.5524 36.842C61.318 37.0399 61.2725 37.1863 61.2725 37.269C61.2725 37.3518 61.318 37.4982 61.5524 37.6961C61.7845 37.892 62.1499 38.091 62.6453 38.268C63.6317 38.6202 65.0272 38.8476 66.5926 38.8476C68.1579 38.8476 69.5535 38.6202 70.5398 38.268C71.0352 38.091 71.4006 37.892 71.6327 37.6961C71.8671 37.4982 71.9126 37.3518 71.9126 37.269C71.9126 37.1863 71.8671 37.0399 71.6327 36.842C71.4006 36.646 71.0352 36.447 70.5398 36.2701C69.5535 35.9178 68.1579 35.6904 66.5926 35.6904C65.0272 35.6904 63.6317 35.9178 62.6453 36.2701C62.1499 36.447 61.7845 36.646 61.5524 36.842ZM62.309 35.3284C63.4291 34.9283 64.9436 34.6904 66.5926 34.6904C68.2415 34.6904 69.7561 34.9283 70.8762 35.3284C71.434 35.5276 71.9209 35.7765 72.2779 36.0779C72.6325 36.3774 72.9126 36.7778 72.9126 37.269C72.9126 37.7603 72.6325 38.1607 72.2779 38.4601C71.9209 38.7616 71.434 39.0105 70.8762 39.2097C69.7561 39.6097 68.2415 39.8476 66.5926 39.8476C64.9436 39.8476 63.4291 39.6097 62.309 39.2097C61.7511 39.0105 61.2642 38.7616 60.9073 38.4601C60.5526 38.1607 60.2725 37.7603 60.2725 37.269C60.2725 36.7778 60.5526 36.3774 60.9073 36.0779C61.2642 35.7765 61.7511 35.5276 62.309 35.3284Z" fill="#333333"/>
<path d="M66.5926 36.8533C69.8069 36.8533 72.4126 35.9226 72.4126 34.7747C72.4126 33.6267 69.8069 32.696 66.5926 32.696C63.3782 32.696 60.7725 33.6267 60.7725 34.7747C60.7725 35.9226 63.3782 36.8533 66.5926 36.8533Z" fill="#FFAE00"/>
<path fill-rule="evenodd" clip-rule="evenodd" d="M61.5524 34.3476C61.318 34.5455 61.2725 34.6919 61.2725 34.7747C61.2725 34.8574 61.318 35.0038 61.5524 35.2017C61.7845 35.3977 62.1499 35.5967 62.6453 35.7736C63.6317 36.1258 65.0272 36.3533 66.5926 36.3533C68.1579 36.3533 69.5535 36.1258 70.5398 35.7736C71.0352 35.5967 71.4006 35.3977 71.6327 35.2017C71.8671 35.0038 71.9126 34.8574 71.9126 34.7747C71.9126 34.6919 71.8671 34.5455 71.6327 34.3476C71.4006 34.1516 71.0352 33.9526 70.5398 33.7757C69.5535 33.4235 68.1579 33.196 66.5926 33.196C65.0272 33.196 63.6317 33.4235 62.6453 33.7757C62.1499 33.9526 61.7845 34.1516 61.5524 34.3476ZM62.309 32.834C63.4291 32.4339 64.9436 32.196 66.5926 32.196C68.2415 32.196 69.7561 32.4339 70.8762 32.834C71.434 33.0332 71.9209 33.2821 72.2779 33.5835C72.6325 33.883 72.9126 34.2834 72.9126 34.7747C72.9126 35.2659 72.6325 35.6663 72.2779 35.9658C71.9209 36.2672 71.434 36.5161 70.8762 36.7153C69.7561 37.1154 68.2415 37.3533 66.5926 37.3533C64.9436 37.3533 63.4291 37.1154 62.309 36.7153C61.7511 36.5161 61.2642 36.2672 60.9073 35.9658C60.5526 35.6663 60.2725 35.2659 60.2725 34.7747C60.2725 34.2834 60.5526 33.883 60.9073 33.5835C61.2642 33.2821 61.7511 33.0332 62.309 32.834Z" fill="#333333"/>
</svg>
