<svg width="132" height="78" viewBox="0 0 132 78" fill="none" xmlns="http://www.w3.org/2000/svg">
<path d="M61.4474 57.771L57.9211 66.5868H77.9132H78.1974H79.079L75.5527 57.771H61.4474Z" fill="#38C1C9"/>
<path d="M37 13C37 11.3431 38.3431 10 40 10H97C98.6569 10 100 11.3431 100 13V55C100 56.6569 98.6569 58 97 58H40C38.3431 58 37 56.6569 37 55V13Z" fill="#E6FEFC"/>
<path fill-rule="evenodd" clip-rule="evenodd" d="M36.5 13C36.5 11.067 38.067 9.5 40 9.5H97C98.933 9.5 100.5 11.067 100.5 13V55C100.5 56.933 98.933 58.5 97 58.5H40C38.067 58.5 36.5 56.933 36.5 55V13ZM40 10.5C38.6193 10.5 37.5 11.6193 37.5 13V55C37.5 56.3807 38.6193 57.5 40 57.5H97C98.3807 57.5 99.5 56.3807 99.5 55V13C99.5 11.6193 98.3807 10.5 97 10.5H40Z" fill="#333333"/>
<path d="M46 8C46 6.34315 47.3431 5 49 5H93C94.6569 5 96 6.34315 96 8V40C96 41.6569 94.6569 43 93 43H49C47.3431 43 46 42.5 46 40V8Z" fill="#38C1C9"/>
<path fill-rule="evenodd" clip-rule="evenodd" d="M45 8.5C45 6.567 46.567 5 48.5 5H92.5C94.433 5 96 6.567 96 8.5V40.5C96 42.433 94.433 44 92.5 44H48.5C46.567 44 45 42.433 45 40.5V8.5ZM48.5 6C47.1193 6 46 7.11929 46 8.5V40.5C46 41.8807 47.1193 43 48.5 43H92.5C93.8807 43 95 41.8807 95 40.5V8.5C95 7.11929 93.8807 6 92.5 6H48.5Z" fill="#333333"/>
<path d="M89.887 2.99988H43.4983C42.1185 2.99988 41 4.04375 41 5.33143V36.638C41 37.9257 42.1185 38.9696 43.4983 38.9696H89.887C91.2668 38.9696 92.3853 37.9257 92.3853 36.638V5.33143C92.3853 4.04375 91.2668 2.99988 89.887 2.99988Z" fill="white"/>
<path fill-rule="evenodd" clip-rule="evenodd" d="M43.4983 3.49988C42.3616 3.49988 41.5 4.35185 41.5 5.33143V36.638C41.5 37.6176 42.3616 38.4696 43.4983 38.4696H89.887C91.0237 38.4696 91.8853 37.6176 91.8853 36.638V5.33143C91.8853 4.35185 91.0237 3.49988 89.887 3.49988H43.4983ZM40.5 5.33143C40.5 3.73564 41.8754 2.49988 43.4983 2.49988H89.887C91.5098 2.49988 92.8853 3.73565 92.8853 5.33143V36.638C92.8853 38.2338 91.5098 39.4696 89.887 39.4696H43.4983C41.8754 39.4696 40.5 38.2338 40.5 36.638V5.33143Z" fill="#333333"/>
<path fill-rule="evenodd" clip-rule="evenodd" d="M45.6202 22.658C45.6202 22.3818 45.8441 22.158 46.1202 22.158H57.5167C57.7929 22.158 58.0167 22.3818 58.0167 22.658C58.0167 22.9341 57.7929 23.158 57.5167 23.158H46.1202C45.8441 23.158 45.6202 22.9341 45.6202 22.658Z" fill="#333333"/>
<path fill-rule="evenodd" clip-rule="evenodd" d="M60.8156 22.658C60.8156 22.3818 61.0394 22.158 61.3156 22.158H79.0434C79.3196 22.158 79.5434 22.3818 79.5434 22.658C79.5434 22.9341 79.3196 23.158 79.0434 23.158H61.3156C61.0394 23.158 60.8156 22.9341 60.8156 22.658Z" fill="#333333"/>
<path fill-rule="evenodd" clip-rule="evenodd" d="M45.6202 33.8311C45.6202 33.5549 45.8441 33.3311 46.1202 33.3311H65.1144C65.3905 33.3311 65.6144 33.5549 65.6144 33.8311C65.6144 34.1072 65.3905 34.3311 65.1144 34.3311H46.1202C45.8441 34.3311 45.6202 34.1072 45.6202 33.8311Z" fill="#333333"/>
<path fill-rule="evenodd" clip-rule="evenodd" d="M68.4132 33.8311C68.4132 33.5549 68.6371 33.3311 68.9132 33.3311H75.2446C75.5207 33.3311 75.7446 33.5549 75.7446 33.8311C75.7446 34.1072 75.5207 34.3311 75.2446 34.3311H68.9132C68.6371 34.3311 68.4132 34.1072 68.4132 33.8311Z" fill="#333333"/>
<path fill-rule="evenodd" clip-rule="evenodd" d="M45.6202 17.0714C45.6202 16.7953 45.8441 16.5714 46.1202 16.5714H52.4516C52.7278 16.5714 52.9516 16.7953 52.9516 17.0714C52.9516 17.3476 52.7278 17.5714 52.4516 17.5714H46.1202C45.8441 17.5714 45.6202 17.3476 45.6202 17.0714Z" fill="#333333"/>
<path fill-rule="evenodd" clip-rule="evenodd" d="M54.4842 17.0714C54.4842 16.7953 54.708 16.5714 54.9842 16.5714H70.1795C70.4556 16.5714 70.6795 16.7953 70.6795 17.0714C70.6795 17.3476 70.4556 17.5714 70.1795 17.5714H54.9842C54.708 17.5714 54.4842 17.3476 54.4842 17.0714Z" fill="#333333"/>
<path fill-rule="evenodd" clip-rule="evenodd" d="M45.6202 28.2445C45.6202 27.9684 45.8441 27.7445 46.1202 27.7445H68.9132C69.1894 27.7445 69.4132 27.9684 69.4132 28.2445C69.4132 28.5206 69.1894 28.7445 68.9132 28.7445H46.1202C45.8441 28.7445 45.6202 28.5206 45.6202 28.2445Z" fill="#333333"/>
<path fill-rule="evenodd" clip-rule="evenodd" d="M72.2121 28.2445C72.2121 27.9684 72.436 27.7445 72.7121 27.7445L79.0435 27.7445C79.3196 27.7445 79.5435 27.9684 79.5435 28.2445C79.5435 28.5206 79.3196 28.7445 79.0435 28.7445L72.7121 28.7445C72.436 28.7445 72.2121 28.5206 72.2121 28.2445Z" fill="#333333"/>
<path d="M41 4.99988C41 3.89531 41.8954 2.99988 43 2.99988H90.3853C91.4899 2.99988 92.3853 3.89531 92.3853 4.99988V11.2215H41V4.99988Z" fill="#FFEF85"/>
<path fill-rule="evenodd" clip-rule="evenodd" d="M40.5 4.99988C40.5 3.61917 41.6193 2.49988 43 2.49988H90.3853C91.766 2.49988 92.8853 3.61917 92.8853 4.99988V11.2215C92.8853 11.4977 92.6614 11.7215 92.3853 11.7215H41C40.7239 11.7215 40.5 11.4977 40.5 11.2215V4.99988ZM43 3.49988C42.1716 3.49988 41.5 4.17145 41.5 4.99988V10.7215H91.8853V4.99988C91.8853 4.17145 91.2137 3.49988 90.3853 3.49988H43Z" fill="#333333"/>
<path d="M37 50H100V55C100 56.6569 98.6569 58 97 58H40C38.3431 58 37 56.6569 37 55V50Z" fill="#B5F3F2"/>
<path fill-rule="evenodd" clip-rule="evenodd" d="M36.5 50C36.5 49.7239 36.7239 49.5 37 49.5H100C100.276 49.5 100.5 49.7239 100.5 50V55C100.5 56.933 98.933 58.5 97 58.5H40C38.067 58.5 36.5 56.933 36.5 55V50ZM37.5 50.5V55C37.5 56.3807 38.6193 57.5 40 57.5H97C98.3807 57.5 99.5 56.3807 99.5 55V50.5H37.5Z" fill="#333333"/>
<path fill-rule="evenodd" clip-rule="evenodd" d="M60.8577 58.1444C61.1221 58.2241 61.259 58.4987 61.1635 58.7579L58.4639 66.0836C58.3684 66.3427 58.0766 66.4881 57.8123 66.4084C57.5479 66.3287 57.4109 66.054 57.5064 65.7949L60.2061 58.4692C60.3016 58.2101 60.5933 58.0646 60.8577 58.1444Z" fill="#333333"/>
<path fill-rule="evenodd" clip-rule="evenodd" d="M76.1424 58.1444C75.878 58.2241 75.7411 58.4987 75.8366 58.7579L78.5363 66.0836C78.6317 66.3427 78.9235 66.4881 79.1879 66.4084C79.4523 66.3287 79.5892 66.054 79.4937 65.7949L76.794 58.4692C76.6985 58.2101 76.4068 58.0646 76.1424 58.1444Z" fill="#333333"/>
<path d="M47.3423 68.3477C47.3423 67.374 48.1317 66.5846 49.1054 66.5846H87.8949C88.8687 66.5846 89.6581 67.374 89.6581 68.3477V68.3477C89.6581 69.3215 88.8687 70.1109 87.8949 70.1109H49.1054C48.1317 70.1109 47.3423 69.3215 47.3423 68.3477V68.3477Z" fill="#38C1C9"/>
<path fill-rule="evenodd" clip-rule="evenodd" d="M46.8423 68.3477C46.8423 67.0978 47.8555 66.0846 49.1054 66.0846H87.8949C89.1448 66.0846 90.1581 67.0978 90.1581 68.3477C90.1581 69.5977 89.1448 70.6109 87.8949 70.6109H49.1054C47.8555 70.6109 46.8423 69.5977 46.8423 68.3477ZM49.1054 67.0846C48.4078 67.0846 47.8423 67.6501 47.8423 68.3477C47.8423 69.0454 48.4078 69.6109 49.1054 69.6109H87.8949C88.5925 69.6109 89.1581 69.0454 89.1581 68.3477C89.1581 67.6501 88.5925 67.0846 87.8949 67.0846H49.1054Z" fill="#333333"/>
</svg>
