<svg width="132" height="78" viewBox="0 0 132 78" fill="none" xmlns="http://www.w3.org/2000/svg">
<path d="M132 0H0V78H132V0Z" fill="white"/>
<path d="M44.5698 56.21L41.8 64.66H62.3298L59.5698 56.21H44.5698Z" fill="#38C1C9"/>
<path d="M79.86 9.91992H24.28C22.6232 9.91992 21.28 11.2631 21.28 12.9199V53.0999C21.28 54.7568 22.6232 56.0999 24.28 56.0999H79.86C81.5169 56.0999 82.86 54.7568 82.86 53.0999V12.9199C82.86 11.2631 81.5169 9.91992 79.86 9.91992Z" fill="#E6FEFC" stroke="#333333" stroke-linecap="round" stroke-linejoin="round"/>
<path d="M74.44 4.59998H29.69C28.359 4.59998 27.28 5.67897 27.28 7.00998V39.37C27.28 40.701 28.359 41.78 29.69 41.78H74.44C75.771 41.78 76.85 40.701 76.85 39.37V7.00998C76.85 5.67897 75.771 4.59998 74.44 4.59998Z" fill="#FFEF85" stroke="#333333" stroke-linecap="round" stroke-linejoin="round"/>
<path d="M44.5101 56.12L41.8701 64.03" stroke="#333333" stroke-linecap="round" stroke-linejoin="round"/>
<path d="M59.6301 56.12L62.2701 64.03" stroke="#333333" stroke-linecap="round" stroke-linejoin="round"/>
<path d="M31.54 66.37C31.5427 65.9173 31.7236 65.4839 32.0437 65.1638C32.3638 64.8437 32.7973 64.6627 33.25 64.66H70.8799C71.3334 64.66 71.7684 64.8402 72.0891 65.1609C72.4098 65.4816 72.5898 65.9165 72.5898 66.37C72.5912 66.595 72.5479 66.8179 72.4624 67.026C72.3769 67.2341 72.2511 67.4231 72.092 67.5821C71.933 67.7412 71.744 67.8671 71.5359 67.9526C71.3278 68.038 71.1048 68.0814 70.8799 68.08H33.25C32.7965 68.08 32.3615 67.8999 32.0408 67.5792C31.7201 67.2585 31.54 66.8236 31.54 66.37Z" fill="#38C1C9" stroke="#333333" stroke-linecap="round" stroke-linejoin="round"/>
<path d="M90.6499 61.13H110.72V63.13C110.72 63.9257 110.404 64.6887 109.841 65.2513C109.279 65.8139 108.516 66.13 107.72 66.13H93.6499C92.8543 66.13 92.0912 65.8139 91.5286 65.2513C90.966 64.6887 90.6499 63.9257 90.6499 63.13V61.13Z" fill="#38C1C9"/>
<path d="M90.6499 35.15C90.6499 34.3544 90.966 33.5913 91.5286 33.0287C92.0912 32.4661 92.8543 32.15 93.6499 32.15H107.72C108.516 32.15 109.279 32.4661 109.841 33.0287C110.404 33.5913 110.72 34.3544 110.72 35.15V59.87H90.6499V35.15Z" fill="#E6FEFC"/>
<path d="M106.37 40.97H94.99C94.4377 40.97 93.99 41.4177 93.99 41.97V43.75C93.99 44.3023 94.4377 44.75 94.99 44.75H106.37C106.922 44.75 107.37 44.3023 107.37 43.75V41.97C107.37 41.4177 106.922 40.97 106.37 40.97Z" fill="#FFEF85" stroke="#333333" stroke-linecap="round" stroke-linejoin="round"/>
<path d="M106.37 47.27H94.99C94.4377 47.27 93.99 47.7177 93.99 48.27V50.05C93.99 50.6023 94.4377 51.05 94.99 51.05H106.37C106.922 51.05 107.37 50.6023 107.37 50.05V48.27C107.37 47.7177 106.922 47.27 106.37 47.27Z" fill="#FFC3AE" stroke="#333333" stroke-linecap="round" stroke-linejoin="round"/>
<path d="M106.37 53.5699H94.99C94.4377 53.5699 93.99 54.0177 93.99 54.5699V56.3499C93.99 56.9022 94.4377 57.3499 94.99 57.3499H106.37C106.922 57.3499 107.37 56.9022 107.37 56.3499V54.5699C107.37 54.0177 106.922 53.5699 106.37 53.5699Z" fill="#BAC4FF" stroke="#333333" stroke-linecap="round" stroke-linejoin="round"/>
<path d="M93.8201 36.6899H95.5001" stroke="#333333" stroke-linecap="round" stroke-linejoin="round"/>
<path d="M107.72 32.15H93.6501C91.9933 32.15 90.6501 33.4932 90.6501 35.15V63.17C90.6501 64.8269 91.9933 66.17 93.6501 66.17H107.72C109.377 66.17 110.72 64.8269 110.72 63.17V35.15C110.72 33.4932 109.377 32.15 107.72 32.15Z" stroke="#333333" stroke-linecap="round" stroke-linejoin="round"/>
<path d="M91.1501 60.63H110.22" stroke="#333333" stroke-linecap="round" stroke-linejoin="round"/>
<path d="M101.52 63.28C101.507 63.4913 101.412 63.6892 101.255 63.8312C101.098 63.9733 100.891 64.0482 100.68 64.04C100.468 64.0482 100.262 63.9733 100.105 63.8312C99.948 63.6892 99.8528 63.4913 99.8398 63.28C99.845 63.1749 99.8708 63.0718 99.9158 62.9767C99.9608 62.8816 100.024 62.7963 100.102 62.7257C100.18 62.6551 100.271 62.6006 100.371 62.5653C100.47 62.53 100.575 62.5146 100.68 62.52C100.785 62.5146 100.89 62.53 100.989 62.5653C101.088 62.6006 101.18 62.6551 101.258 62.7257C101.336 62.7963 101.399 62.8816 101.444 62.9767C101.489 63.0718 101.515 63.1749 101.52 63.28V63.28Z" stroke="#333333"/>
<path d="M46.25 9.47998L42.76 12.97L46.16 16.37" stroke="#333333" stroke-linecap="round" stroke-linejoin="round"/>
<path d="M56.9199 9.47998L60.4099 12.97L56.9999 16.37" stroke="#333333" stroke-linecap="round" stroke-linejoin="round"/>
<path d="M53.4 9.47998L49.76 16.37" stroke="#333333" stroke-linecap="round" stroke-linejoin="round"/>
<path d="M39 23H65.08" stroke="#333333" stroke-linecap="round" stroke-linejoin="round"/>
<path d="M39 34.38H65.08" stroke="#333333" stroke-linecap="round" stroke-linejoin="round"/>
<path d="M39 28.6901H65.08" stroke="#333333" stroke-linecap="round" stroke-linejoin="round"/>
<path d="M27.28 49.65H30.18" stroke="#333333" stroke-linecap="round" stroke-linejoin="round"/>
<path d="M35.1799 49.65H38.0799" stroke="#333333" stroke-linecap="round" stroke-linejoin="round"/>
</svg>
