<svg width="132" height="78" viewBox="0 0 132 78" fill="none" xmlns="http://www.w3.org/2000/svg">
<path d="M132 0H0V78H132V0Z" fill="white"/>
<path d="M82.76 24.2301V63.2301C82.7574 63.955 82.4677 64.6494 81.9541 65.1611C81.4405 65.6728 80.745 65.9601 80.02 65.9601H40.1501C39.4261 65.9601 38.7317 65.6724 38.2197 65.1605C37.7078 64.6485 37.4199 63.9541 37.4199 63.2301V14.7901C37.4199 14.4315 37.4907 14.0765 37.6279 13.7453C37.7651 13.4141 37.9662 13.1132 38.2197 12.8597C38.4732 12.6062 38.774 12.4051 39.1052 12.2679C39.4364 12.1307 39.7916 12.0601 40.1501 12.0601H71.52L82.76 24.2301Z" fill="#DEFEFC" stroke="#333333" stroke-linecap="round" stroke-linejoin="round"/>
<path d="M82.76 24.2301H74.52C73.7244 24.2301 72.9613 23.914 72.3987 23.3514C71.8361 22.7888 71.52 22.0257 71.52 21.2301V12.0601L82.76 24.2301Z" fill="#0598A8" stroke="#333333" stroke-linecap="round" stroke-linejoin="round"/>
<path d="M82.75 24.2301L71.51 12.0601" stroke="#333333" stroke-linecap="round" stroke-linejoin="round"/>
<path d="M42.75 31.91H77.13" stroke="#333333" stroke-linecap="round" stroke-linejoin="round"/>
<path d="M42.75 40.0801H62.58" stroke="#333333" stroke-linecap="round" stroke-linejoin="round"/>
<path d="M66.1201 40.0801H77.1301" stroke="#333333" stroke-linecap="round" stroke-linejoin="round"/>
<path d="M67.22 46.91H57.3" stroke="#333333" stroke-linecap="round" stroke-linejoin="round"/>
<path d="M53.77 46.91H42.75" stroke="#333333" stroke-linecap="round" stroke-linejoin="round"/>
<path d="M58.24 56.54H42.22" stroke="#333333" stroke-linecap="round" stroke-linejoin="round"/>
<path d="M93.5022 33.2731C94.8886 31.8867 94.9424 29.6928 93.6225 28.3728C92.3025 27.0528 90.1085 27.1067 88.7222 28.493C87.3358 29.8794 87.282 32.0733 88.6019 33.3933C89.9219 34.7133 92.1159 34.6594 93.5022 33.2731Z" fill="#FFEF85" stroke="#333333" stroke-linecap="round" stroke-linejoin="round"/>
<path d="M64.54 56.3L64.9799 55.3L66.7099 57.0201L65.7099 57.46C65.5472 57.5347 65.3657 57.558 65.1894 57.5268C65.0131 57.4955 64.8505 57.4113 64.7233 57.2852C64.5962 57.1591 64.5105 56.9973 64.4777 56.8213C64.445 56.6452 64.4667 56.4634 64.54 56.3Z" fill="#FF8C00" stroke="#333333" stroke-linecap="round" stroke-linejoin="round"/>
<path d="M66.7 57.01L64.98 55.29L67.41 49.8L72.2 54.59L66.7 57.01Z" fill="#FFEF85" stroke="#333333" stroke-linecap="round" stroke-linejoin="round"/>
<path d="M72.1989 54.5846L93.5039 33.2795L88.7168 28.4924L67.4117 49.7975L72.1989 54.5846Z" fill="#FF8C00" stroke="#333333" stroke-linecap="round" stroke-linejoin="round"/>
<path d="M42.75 24.23H65.04" stroke="#333333" stroke-linecap="round" stroke-linejoin="round"/>
</svg>
