<svg width="132" height="78" viewBox="0 0 132 78" fill="none" xmlns="http://www.w3.org/2000/svg">
<path d="M132 0H0V78H132V0Z" fill="white"/>
<path d="M66.0002 71.04C70.4682 71.04 74.0901 56.6952 74.0901 39C74.0901 21.3048 70.4682 6.95996 66.0002 6.95996C61.5322 6.95996 57.9102 21.3048 57.9102 39C57.9102 56.6952 61.5322 71.04 66.0002 71.04Z" stroke="#333333" stroke-linecap="round" stroke-linejoin="round"/>
<path d="M60.04 19.85C61.8294 19.85 63.28 18.3994 63.28 16.61C63.28 14.8206 61.8294 13.37 60.04 13.37C58.2506 13.37 56.8 14.8206 56.8 16.61C56.8 18.3994 58.2506 19.85 60.04 19.85Z" fill="#38C1C9" stroke="#333333"/>
<path d="M93.7466 55.019C95.9806 51.1496 85.3687 40.8404 70.0442 31.9928C54.7197 23.1451 40.4857 19.1096 38.2517 22.979C36.0177 26.8484 46.6297 37.1574 61.9542 46.005C77.2787 54.8526 91.5126 58.8884 93.7466 55.019Z" stroke="#333333" stroke-linecap="round" stroke-linejoin="round"/>
<path d="M70.036 46.0052C85.3605 37.1576 95.9725 26.8484 93.7385 22.979C91.5045 19.1097 77.2705 23.1453 61.946 31.9929C46.6215 40.8405 36.0097 51.1496 38.2437 55.019C40.4777 58.8883 54.7115 54.8528 70.036 46.0052Z" stroke="#333333" stroke-linecap="round" stroke-linejoin="round"/>
<path d="M49.4302 58.5499C51.2196 58.5499 52.6702 57.0994 52.6702 55.3099C52.6702 53.5205 51.2196 52.0699 49.4302 52.0699C47.6408 52.0699 46.1902 53.5205 46.1902 55.3099C46.1902 57.0994 47.6408 58.5499 49.4302 58.5499Z" fill="#38C1C9" stroke="#333333"/>
<path d="M88.47 48.72C90.2594 48.72 91.71 47.2694 91.71 45.48C91.71 43.6906 90.2594 42.24 88.47 42.24C86.6806 42.24 85.23 43.6906 85.23 45.48C85.23 47.2694 86.6806 48.72 88.47 48.72Z" fill="#FFEF85" stroke="#333333" stroke-linecap="round" stroke-linejoin="round"/>
<path d="M66.0002 43.58C68.7947 43.58 71.0602 42.801 71.0602 41.84C71.0602 40.879 68.7947 40.1 66.0002 40.1C63.2056 40.1 60.9402 40.879 60.9402 41.84C60.9402 42.801 63.2056 43.58 66.0002 43.58Z" fill="#FF8C00" stroke="#333333"/>
<path d="M66.0002 41.69C68.7947 41.69 71.0602 40.9109 71.0602 39.95C71.0602 38.989 68.7947 38.21 66.0002 38.21C63.2056 38.21 60.9402 38.989 60.9402 39.95C60.9402 40.9109 63.2056 41.69 66.0002 41.69Z" fill="#FF8C00" stroke="#333333"/>
<path d="M66.0002 39.7899C68.7947 39.7899 71.0602 39.0109 71.0602 38.0499C71.0602 37.089 68.7947 36.3099 66.0002 36.3099C63.2056 36.3099 60.9402 37.089 60.9402 38.0499C60.9402 39.0109 63.2056 39.7899 66.0002 39.7899Z" fill="#FF8C00" stroke="#333333"/>
<path d="M66.0002 37.9C68.7947 37.9 71.0602 37.121 71.0602 36.16C71.0602 35.1991 68.7947 34.42 66.0002 34.42C63.2056 34.42 60.9402 35.1991 60.9402 36.16C60.9402 37.121 63.2056 37.9 66.0002 37.9Z" fill="#FF8C00" stroke="#333333"/>
</svg>
