<svg width="132" height="78" viewBox="0 0 132 78" fill="none" xmlns="http://www.w3.org/2000/svg">
<path d="M132 0H0V78H132V0Z" fill="white"/>
<path d="M87.3999 44.59C86.9799 43.41 86.1199 41.69 85.0799 41.59C85.0079 41.5699 84.9319 41.5699 84.8599 41.59L82.0598 42.95C82.0005 42.9786 81.9478 43.0191 81.9048 43.069C81.8618 43.1189 81.8294 43.1771 81.8098 43.24L80.68 46.54C80.649 46.6282 80.6432 46.7234 80.6636 46.8147C80.684 46.906 80.7298 46.9898 80.7954 47.0564C80.8611 47.1231 80.944 47.17 81.0349 47.1919C81.1259 47.2137 81.2211 47.2096 81.3098 47.18L87.0999 45.18C87.2161 45.1389 87.3121 45.0548 87.3679 44.945C87.4238 44.8351 87.4352 44.708 87.3999 44.59V44.59Z" fill="#FFF8E6" stroke="#333333" stroke-linecap="round" stroke-linejoin="round"/>
<path d="M74.43 56.96L88.7301 48.96C89.0353 48.7838 89.2884 48.5301 89.464 48.2245C89.6396 47.919 89.7315 47.5725 89.7301 47.22V46.67C89.7301 46.4389 89.6845 46.2101 89.596 45.9965C89.5076 45.783 89.3779 45.589 89.2145 45.4255C89.051 45.2621 88.8569 45.1325 88.6434 45.044C88.4299 44.9556 88.2012 44.91 87.9701 44.91C87.7727 44.9132 87.577 44.9469 87.39 45.01L82.0099 46.9L76.69 48.08C76.2866 48.17 75.8649 48.1327 75.4835 47.9734C75.1021 47.814 74.7794 47.5403 74.5599 47.19L74.2 46.6C73.9183 46.1576 73.4784 45.8393 72.9701 45.71L65.9701 44.02C65.69 43.9591 65.4 43.9591 65.12 44.02L60.7499 44.86C60.5165 44.9081 60.2933 44.996 60.0899 45.12L54.2301 48.65C53.9854 48.8025 53.7764 49.006 53.6178 49.2467C53.4591 49.4873 53.3543 49.7594 53.3106 50.0444C53.267 50.3293 53.2856 50.6203 53.3648 50.8974C53.4441 51.1746 53.5821 51.4313 53.7699 51.65L57.93 56.28C58.2011 56.5822 58.5577 56.7948 58.9525 56.8894C59.3472 56.9841 59.7614 56.9564 60.14 56.81L63.4601 55.53C63.8161 55.3903 64.2047 55.3556 64.5799 55.43L73.0699 57.16C73.5326 57.2562 74.0146 57.1853 74.43 56.96Z" fill="#FFF8E6" stroke="#333333" stroke-linecap="round" stroke-linejoin="round"/>
<path d="M75.3799 47.96L69.71 48.96" stroke="#333333" stroke-linecap="round" stroke-linejoin="round"/>
<path d="M50.0898 47.19C50.3093 47.0365 50.5789 46.9718 50.8442 47.0089C51.1095 47.046 51.3508 47.1822 51.5197 47.39L60.1999 58.52C60.3528 58.7308 60.4174 58.9929 60.3801 59.2506C60.3427 59.5083 60.2062 59.7413 59.9997 59.9L52.5598 65.29C52.4541 65.3719 52.3333 65.4318 52.2041 65.4662C52.0748 65.5005 51.94 65.5086 51.8076 65.49C51.6752 65.4713 51.548 65.4263 51.4333 65.3576C51.3186 65.2889 51.2188 65.1979 51.1398 65.09L42.4599 53.96C42.309 53.7512 42.2443 53.4921 42.2797 53.2369C42.3151 52.9816 42.4478 52.7499 42.6499 52.59L50.0898 47.19Z" fill="#38C1C9" stroke="#333333" stroke-linecap="round" stroke-linejoin="round"/>
<path d="M71.79 39.13C79.1409 39.13 85.1 33.1709 85.1 25.82C85.1 18.4691 79.1409 12.51 71.79 12.51C64.4391 12.51 58.48 18.4691 58.48 25.82C58.48 33.1709 64.4391 39.13 71.79 39.13Z" fill="#FF8C00" stroke="#333333"/>
<path fill-rule="evenodd" clip-rule="evenodd" d="M73.72 21.77C73.7524 21.8131 73.7791 21.8602 73.7998 21.91C73.7969 21.9299 73.7969 21.9501 73.7998 21.97L73.8499 22.05C73.8499 22.16 73.9498 22.29 73.9998 22.43H77.4998V24.96H74.1899C74.1399 25.15 74.0898 25.33 74.0298 25.51C73.9158 25.8281 73.7684 26.1332 73.5898 26.42C73.4698 26.6 73.3299 26.78 73.1899 26.96C73.0312 27.1538 72.8537 27.3313 72.6599 27.49V27.49L72.2598 27.8C72.1561 27.8825 72.0459 27.956 71.9299 28.02C71.3464 28.3806 70.6971 28.6219 70.0198 28.73H69.9099L69.98 28.79L70.0598 28.85L70.3899 29.13L76.3198 34.56H73.3899C73.2664 34.582 73.1396 34.5763 73.0186 34.5434C72.8975 34.5106 72.7854 34.4514 72.6899 34.37L68.5198 30.89L68.3298 30.73L68.21 30.64L67.2898 29.86L67.1699 29.76L66.46 29.16C66.23 28.98 66.0098 28.81 66.0098 28.47V26.3H69.1099C69.5164 26.3113 69.92 26.2292 70.2898 26.06C70.3923 26.0228 70.4926 25.9794 70.5898 25.93L70.9399 25.69C71.0889 25.5844 71.2203 25.4562 71.3298 25.31C71.4185 25.2125 71.4957 25.1052 71.5598 24.99H66.0098V22.47H71.0098C70.8654 22.3587 70.7153 22.2552 70.5598 22.16L70.2798 22.02H70.2L70.0098 21.95C69.7252 21.8589 69.4286 21.8117 69.1299 21.81H66.0098V19.28H77.5398V21.81L73.72 21.77Z" fill="#FFEF85" stroke="#333333" stroke-linecap="round" stroke-linejoin="round"/>
</svg>
