<svg width="132" height="78" viewBox="0 0 132 78" fill="none" xmlns="http://www.w3.org/2000/svg">
<path d="M132 0H0V78H132V0Z" fill="white"/>
<path d="M71.58 48.1699H60.4298C60.2757 48.1707 60.123 48.139 59.9818 48.077C59.8407 48.015 59.7142 47.924 59.6105 47.8099C59.5068 47.6958 59.4281 47.5612 59.3798 47.4147C59.3315 47.2683 59.3146 47.1134 59.33 46.9599C59.78 42.6399 62.5999 39.2999 65.9999 39.2999C69.3999 39.2999 72.2298 42.6399 72.6798 46.9599C72.6937 47.113 72.6758 47.2674 72.6269 47.4131C72.578 47.5589 72.4991 47.6929 72.3957 47.8066C72.2923 47.9204 72.1665 48.0114 72.026 48.0739C71.8856 48.1365 71.7337 48.1692 71.58 48.1699Z" fill="#FF8C00" stroke="#333333"/>
<path d="M66 40.5199C68.0931 40.5199 69.79 38.8231 69.79 36.7299C69.79 34.6368 68.0931 32.9399 66 32.9399C63.9068 32.9399 62.21 34.6368 62.21 36.7299C62.21 38.8231 63.9068 40.5199 66 40.5199Z" fill="#FF8C00" stroke="#333333"/>
<path d="M98.98 46.53H90.23C90.1043 46.5317 89.9797 46.5058 89.8651 46.4541C89.7504 46.4024 89.6485 46.3262 89.5665 46.2309C89.4845 46.1355 89.4244 46.0233 89.3904 45.9023C89.3565 45.7812 89.3497 45.6541 89.3702 45.53C89.7302 42.14 91.9402 39.53 94.6002 39.53C97.2602 39.53 99.4902 42.15 99.8402 45.53C99.8606 45.6541 99.8536 45.7812 99.8196 45.9023C99.7857 46.0233 99.7256 46.1355 99.6436 46.2309C99.5616 46.3262 99.4597 46.4024 99.345 46.4541C99.2304 46.5058 99.1058 46.5317 98.98 46.53Z" fill="#FFEF85" stroke="#333333" stroke-linecap="round" stroke-linejoin="round"/>
<path d="M94.6001 40.53C96.2404 40.53 97.5701 39.2003 97.5701 37.56C97.5701 35.9197 96.2404 34.59 94.6001 34.59C92.9598 34.59 91.6301 35.9197 91.6301 37.56C91.6301 39.2003 92.9598 40.53 94.6001 40.53Z" fill="#FFEF85" stroke="#333333" stroke-linecap="round" stroke-linejoin="round"/>
<path d="M41.77 46.53H33.02C32.8943 46.5317 32.7697 46.5058 32.655 46.4541C32.5404 46.4024 32.4384 46.3262 32.3564 46.2309C32.2744 46.1355 32.2144 46.0233 32.1804 45.9023C32.1465 45.7812 32.1394 45.6541 32.1599 45.53C32.5099 42.14 34.7201 39.53 37.3901 39.53C40.0601 39.53 42.2701 42.15 42.6301 45.53C42.6506 45.6541 42.6436 45.7812 42.6096 45.9023C42.5757 46.0233 42.5156 46.1355 42.4336 46.2309C42.3516 46.3262 42.2496 46.4024 42.135 46.4541C42.0204 46.5058 41.8958 46.5317 41.77 46.53Z" fill="#FFEF85" stroke="#333333" stroke-linecap="round" stroke-linejoin="round"/>
<path d="M37.3999 40.53C39.0402 40.53 40.3699 39.2003 40.3699 37.56C40.3699 35.9197 39.0402 34.59 37.3999 34.59C35.7596 34.59 34.4299 35.9197 34.4299 37.56C34.4299 39.2003 35.7596 40.53 37.3999 40.53Z" fill="#FFEF85" stroke="#333333" stroke-linecap="round" stroke-linejoin="round"/>
<path d="M70.3801 19.2999H61.6301C61.5049 19.2999 61.3811 19.2728 61.2673 19.2206C61.1535 19.1683 61.0523 19.0921 60.9707 18.9972C60.8891 18.9023 60.8288 18.7908 60.7942 18.6705C60.7596 18.5501 60.7513 18.4237 60.77 18.2999C61.12 14.9099 63.33 12.2999 66 12.2999C68.67 12.2999 70.89 14.9199 71.24 18.2999C71.2587 18.4237 71.2504 18.5501 71.2158 18.6705C71.1812 18.7908 71.121 18.9023 71.0393 18.9972C70.9577 19.0921 70.8565 19.1683 70.7427 19.2206C70.6289 19.2728 70.5053 19.2999 70.3801 19.2999Z" fill="#FFEF85" stroke="#333333" stroke-linecap="round" stroke-linejoin="round"/>
<path d="M66 13.29C67.6403 13.29 68.97 11.9603 68.97 10.32C68.97 8.67969 67.6403 7.34998 66 7.34998C64.3597 7.34998 63.03 8.67969 63.03 10.32C63.03 11.9603 64.3597 13.29 66 13.29Z" fill="#FFEF85" stroke="#333333" stroke-linecap="round" stroke-linejoin="round"/>
<path d="M77.71 28.85C79.2487 30.3862 80.4694 32.2108 81.3022 34.2193C82.1351 36.2277 82.564 38.3807 82.564 40.555C82.564 42.7293 82.1351 44.8823 81.3022 46.8908C80.4694 48.8992 79.2487 50.7238 77.71 52.26C76.1737 53.7987 74.3493 55.0195 72.3408 55.8523C70.3324 56.6852 68.1794 57.1139 66.0051 57.1139C63.8308 57.1139 61.6777 56.6852 59.6692 55.8523C57.6607 55.0195 55.8363 53.7987 54.3 52.26C52.7625 50.7231 51.5428 48.8984 50.7107 46.89C49.8786 44.8816 49.4502 42.729 49.4502 40.555C49.4502 38.3811 49.8786 36.2284 50.7107 34.22C51.5428 32.2117 52.7625 30.3869 54.3 28.85C57.4053 25.7473 61.6154 24.0044 66.0051 24.0044C70.3948 24.0044 74.6047 25.7473 77.71 28.85V28.85Z" stroke="#333333" stroke-linecap="round" stroke-linejoin="round"/>
<path d="M52.77 27.3C51.0284 29.0412 49.6469 31.1084 48.7043 33.3836C47.7618 35.6587 47.2766 38.0973 47.2766 40.56C47.2766 43.0227 47.7618 45.4613 48.7043 47.7365C49.6469 50.0117 51.0284 52.0789 52.77 53.82C56.2861 57.3343 61.0537 59.3085 66.0249 59.3085C70.9961 59.3085 75.764 57.3343 79.28 53.82C81.0217 52.0789 82.4031 50.0117 83.3457 47.7365C84.2883 45.4613 84.7734 43.0227 84.7734 40.56C84.7734 38.0973 84.2883 35.6587 83.3457 33.3836C82.4031 31.1084 81.0217 29.0412 79.28 27.3C75.764 23.7857 70.9961 21.8115 66.0249 21.8115C61.0537 21.8115 56.2861 23.7857 52.77 27.3ZM77.77 52.3C76.2338 53.8387 74.4093 55.0595 72.4009 55.8923C70.3924 56.7252 68.2393 57.1539 66.0649 57.1539C63.8906 57.1539 61.7377 56.7252 59.7292 55.8923C57.7208 55.0595 55.8963 53.8387 54.3601 52.3C52.8226 50.7631 51.6029 48.9384 50.7708 46.93C49.9386 44.9216 49.5103 42.769 49.5103 40.595C49.5103 38.4211 49.9386 36.2684 50.7708 34.26C51.6029 32.2517 52.8226 30.4269 54.3601 28.89C55.8979 27.3522 57.7235 26.1323 59.7327 25.3C61.7419 24.4678 63.8953 24.0394 66.0701 24.0394C68.2448 24.0394 70.3983 24.4678 72.4075 25.3C74.4167 26.1323 76.2423 27.3522 77.78 28.89C80.8662 32.0003 82.592 36.208 82.5789 40.5895C82.5657 44.971 80.8147 49.1683 77.71 52.26L77.77 52.3Z" fill="#38C1C9" stroke="#333333" stroke-linecap="round" stroke-linejoin="round"/>
<path d="M77.71 28.85C79.2487 30.3862 80.4694 32.2108 81.3022 34.2193C82.1351 36.2277 82.564 38.3807 82.564 40.555C82.564 42.7293 82.1351 44.8823 81.3022 46.8908C80.4694 48.8992 79.2487 50.7238 77.71 52.26C76.1737 53.7987 74.3493 55.0195 72.3408 55.8523C70.3324 56.6852 68.1794 57.1139 66.0051 57.1139C63.8308 57.1139 61.6777 56.6852 59.6692 55.8523C57.6607 55.0195 55.8363 53.7987 54.3 52.26C52.7625 50.7231 51.5428 48.8984 50.7107 46.89C49.8786 44.8816 49.4502 42.729 49.4502 40.555C49.4502 38.3811 49.8786 36.2284 50.7107 34.22C51.5428 32.2117 52.7625 30.3869 54.3 28.85C57.4053 25.7473 61.6154 24.0044 66.0051 24.0044C70.3948 24.0044 74.6047 25.7473 77.71 28.85V28.85Z" stroke="#333333" stroke-linecap="round" stroke-linejoin="round"/>
<path d="M79.26 53.8199L82.78 57.3399" stroke="#333333" stroke-linecap="round" stroke-linejoin="round"/>
<path d="M84.0588 56.27C83.4105 55.6217 82.3595 55.6217 81.7113 56.2699C81.063 56.9182 81.0629 57.9694 81.7112 58.6176L91.547 68.4535C92.1953 69.1018 93.2464 69.1017 93.8947 68.4534C94.543 67.8051 94.5429 66.7541 93.8946 66.1059L84.0588 56.27Z" fill="#38C1C9" stroke="#333333" stroke-linecap="round" stroke-linejoin="round"/>
</svg>
