<svg width="132" height="78" viewBox="0 0 132 78" fill="none" xmlns="http://www.w3.org/2000/svg">
<path d="M132 0H0V78H132V0Z" fill="white"/>
<path d="M58.7 27.7699H62.8599V15.0499C62.8601 14.7804 62.8059 14.5137 62.7004 14.2656C62.595 14.0176 62.4404 13.7935 62.2461 13.6067C62.0518 13.4199 61.8218 13.2743 61.5698 13.1786C61.3179 13.0829 61.0493 13.0392 60.78 13.0499C60.5107 13.0392 60.242 13.0829 59.99 13.1786C59.738 13.2743 59.508 13.4199 59.3137 13.6067C59.1194 13.7935 58.9649 14.0176 58.8594 14.2656C58.7539 14.5137 58.6997 14.7804 58.7 15.0499V27.7699Z" fill="#FFDE99" stroke="#333333" stroke-miterlimit="10"/>
<path d="M69.9199 27.7699H74.0798V15.0499C74.08 14.7804 74.0259 14.5137 73.9204 14.2656C73.8149 14.0176 73.6603 13.7935 73.4661 13.6067C73.2718 13.4199 73.0418 13.2743 72.7898 13.1786C72.5378 13.0829 72.2693 13.0392 72 13.0499C71.7307 13.0392 71.4619 13.0829 71.21 13.1786C70.958 13.2743 70.728 13.4199 70.5337 13.6067C70.3394 13.7935 70.1848 14.0176 70.0793 14.2656C69.9739 14.5137 69.9197 14.7804 69.9199 15.0499V27.7699Z" fill="#FFDE99" stroke="#333333" stroke-miterlimit="10"/>
<path d="M62.8599 27.77H69.8599V11.57C69.8482 11.12 69.7478 10.6767 69.5645 10.2655C69.3811 9.85438 69.1185 9.48348 68.7915 9.1741C68.4645 8.86472 68.0794 8.62295 67.6587 8.46266C67.238 8.30237 66.7898 8.22671 66.3398 8.24002C65.4317 8.21581 64.5513 8.55282 63.8914 9.17711C63.2314 9.8014 62.846 10.662 62.8198 11.57V27.77H62.8599Z" fill="#FF6B00" stroke="#333333" stroke-linecap="round" stroke-linejoin="round"/>
<path d="M68.1299 19.51V14.19C68.1299 13.48 67.3499 12.91 66.3799 12.91C65.4099 12.91 64.6399 13.48 64.6399 14.19V19.51H68.1299Z" fill="#FFDE99" stroke="#333333" stroke-miterlimit="10"/>
<path d="M74.0598 27.77H81.1099V18.21C81.1099 17.12 79.5298 16.21 77.5898 16.21C75.6498 16.21 74.0598 17.08 74.0598 18.21V27.77Z" fill="#FF6B00" stroke="#333333" stroke-linecap="round" stroke-linejoin="round"/>
<path d="M79.3298 24.7701V20.17C79.3298 19.54 78.5498 19.05 77.5898 19.05C76.6298 19.05 75.8499 19.54 75.8499 20.17V24.7701H79.3298Z" fill="#FFDE99" stroke="#333333" stroke-miterlimit="10"/>
<path d="M51.6499 27.77H58.6499V18.21C58.6499 17.12 57.0699 16.21 55.1299 16.21C53.1899 16.21 51.6099 17.08 51.6099 18.21L51.6499 27.77Z" fill="#FF6B00" stroke="#333333" stroke-linecap="round" stroke-linejoin="round"/>
<path d="M56.9199 24.7701V20.17C56.9199 19.54 56.1399 19.05 55.1799 19.05C54.2199 19.05 53.4399 19.54 53.4399 20.17V24.7701H56.9199Z" fill="#FFDE99" stroke="#333333" stroke-miterlimit="10"/>
<path d="M47.49 27.77H51.6499V17.77C51.6499 16.91 50.7098 16.21 49.5698 16.21C48.4298 16.21 47.49 16.91 47.49 17.77V27.77Z" fill="#FFDE99" stroke="#333333" stroke-miterlimit="10"/>
<path d="M81.1199 27.77H85.28V17.77C85.28 16.91 84.35 16.21 83.2 16.21C82.05 16.21 81.1199 16.91 81.1199 17.77V27.77Z" fill="#FFDE99" stroke="#333333" stroke-miterlimit="10"/>
<path d="M58.7 36.28H62.8599V23.56C62.8601 23.2904 62.8059 23.0237 62.7004 22.7756C62.595 22.5276 62.4404 22.3035 62.2461 22.1167C62.0518 21.9299 61.8218 21.7843 61.5698 21.6886C61.3179 21.5929 61.0493 21.5492 60.78 21.56C60.5107 21.5492 60.242 21.5929 59.99 21.6886C59.738 21.7843 59.508 21.9299 59.3137 22.1167C59.1194 22.3035 58.9649 22.5276 58.8594 22.7756C58.7539 23.0237 58.6997 23.2904 58.7 23.56V36.28Z" fill="#FFDE99" stroke="#333333" stroke-miterlimit="10"/>
<path d="M36.28 36.28H40.4399V21.58C39.9041 21.5694 39.3714 21.6645 38.8723 21.8598C38.3732 22.0551 37.9176 22.3468 37.5312 22.7182C37.1449 23.0897 36.8356 23.5336 36.6208 24.0246C36.4061 24.5157 36.2904 25.0442 36.28 25.58V36.28Z" fill="#FFDE99" stroke="#333333" stroke-miterlimit="10"/>
<path d="M69.9199 36.28H74.0798V23.56C74.08 23.2904 74.0259 23.0237 73.9204 22.7756C73.8149 22.5276 73.6603 22.3035 73.4661 22.1167C73.2718 21.9299 73.0418 21.7843 72.7898 21.6886C72.5378 21.5929 72.2693 21.5492 72 21.56C71.7307 21.5492 71.4619 21.5929 71.21 21.6886C70.958 21.7843 70.728 21.9299 70.5337 22.1167C70.3394 22.3035 70.1848 22.5276 70.0793 22.7756C69.9739 23.0237 69.9197 23.2904 69.9199 23.56V36.28Z" fill="#FFDE99" stroke="#333333" stroke-miterlimit="10"/>
<path d="M62.8599 36.28H69.8599V24.09C69.8599 22.7 68.2898 21.58 66.3398 21.58C64.3898 21.58 62.8198 22.7 62.8198 24.09V36.28H62.8599Z" fill="#FF6B00" stroke="#333333" stroke-linecap="round" stroke-linejoin="round"/>
<path d="M68.1299 30.43V25.87C68.1299 25.25 67.3499 24.77 66.3799 24.77C65.4099 24.77 64.6399 25.26 64.6399 25.87V30.43H68.1299Z" fill="#FFDE99" stroke="#333333" stroke-miterlimit="10"/>
<path d="M74.0598 36.28H81.1099V24.09C81.1099 22.7 79.5298 21.58 77.5898 21.58C75.6498 21.58 74.0598 22.7 74.0598 24.09V36.28Z" fill="#FF6B00" stroke="#333333" stroke-linecap="round" stroke-linejoin="round"/>
<path d="M79.3298 30.43V25.87C79.3298 25.25 78.5498 24.77 77.5898 24.77C76.6298 24.77 75.8499 25.26 75.8499 25.87V30.43H79.3298Z" fill="#FFDE99" stroke="#333333" stroke-miterlimit="10"/>
<path d="M51.6499 36.28H58.6499V24.09C58.6499 22.7 57.0699 21.58 55.1299 21.58C53.1899 21.58 51.6099 22.7 51.6099 24.09L51.6499 36.28Z" fill="#FF6B00" stroke="#333333" stroke-linecap="round" stroke-linejoin="round"/>
<path d="M56.9199 30.43V25.87C56.9199 25.25 56.1399 24.77 55.1799 24.77C54.2199 24.77 53.4399 25.26 53.4399 25.87V30.43H56.9199Z" fill="#FFDE99" stroke="#333333" stroke-miterlimit="10"/>
<path d="M40.4399 36.28H47.49V24.09C47.49 22.7 45.91 21.58 43.96 21.58C42.01 21.58 40.4399 22.7 40.4399 24.09V36.28Z" fill="#FF6B00" stroke="#333333" stroke-linecap="round" stroke-linejoin="round"/>
<path d="M45.71 30.43V25.87C45.71 25.25 44.93 24.77 43.96 24.77C42.99 24.77 42.23 25.26 42.23 25.87V30.43H45.71Z" fill="#FFDE99" stroke="#333333" stroke-miterlimit="10"/>
<path d="M96.48 25.56C96.4709 25.0237 96.3559 24.4946 96.1416 24.003C95.9273 23.5113 95.618 23.0669 95.2314 22.6952C94.8449 22.3235 94.3886 22.0318 93.8889 21.837C93.3893 21.6422 92.856 21.548 92.3198 21.56V36.26H96.48V25.56Z" fill="#FFDE99" stroke="#333333" stroke-miterlimit="10"/>
<path d="M92.3198 24.09C92.3198 22.7 90.7398 21.58 88.7998 21.58C86.8598 21.58 85.28 22.7 85.28 24.09V36.28H92.28L92.3198 24.09Z" fill="#FF6B00" stroke="#333333" stroke-linecap="round" stroke-linejoin="round"/>
<path d="M90.54 30.43V25.87C90.54 25.25 89.7598 24.77 88.7998 24.77C87.8398 24.77 87.0498 25.26 87.0498 25.87V30.43H90.54Z" fill="#FFDE99" stroke="#333333" stroke-miterlimit="10"/>
<path d="M47.49 36.28H51.6499V23.56C51.6501 23.2904 51.596 23.0237 51.4905 22.7756C51.385 22.5276 51.2304 22.3035 51.0361 22.1167C50.8419 21.9299 50.6118 21.7843 50.3599 21.6886C50.1079 21.5929 49.8391 21.5492 49.5698 21.56C49.3005 21.5492 49.032 21.5929 48.78 21.6886C48.5281 21.7843 48.298 21.9299 48.1038 22.1167C47.9095 22.3035 47.7549 22.5276 47.6494 22.7756C47.5439 23.0237 47.4898 23.2904 47.49 23.56V36.28Z" fill="#FFDE99" stroke="#333333" stroke-miterlimit="10"/>
<path d="M81.1199 36.28H85.28V23.56C85.2802 23.2904 85.2258 23.0237 85.1204 22.7756C85.0149 22.5276 84.8605 22.3035 84.6663 22.1167C84.472 21.9299 84.242 21.7843 83.99 21.6886C83.738 21.5929 83.4692 21.5492 83.2 21.56C82.9307 21.5492 82.6619 21.5929 82.4099 21.6886C82.158 21.7843 81.9279 21.9299 81.7336 22.1167C81.5394 22.3035 81.385 22.5276 81.2795 22.7756C81.1741 23.0237 81.1197 23.2904 81.1199 23.56V36.28Z" fill="#FFDE99" stroke="#333333" stroke-miterlimit="10"/>
<path d="M58.7 46.87H62.8599V34.15C62.8601 33.8805 62.8059 33.6137 62.7004 33.3657C62.595 33.1177 62.4404 32.8936 62.2461 32.7068C62.0518 32.52 61.8218 32.3744 61.5698 32.2787C61.3179 32.183 61.0493 32.1393 60.78 32.15C60.5107 32.1393 60.242 32.183 59.99 32.2787C59.738 32.3744 59.508 32.52 59.3137 32.7068C59.1194 32.8936 58.9649 33.1177 58.8594 33.3657C58.7539 33.6137 58.6997 33.8805 58.7 34.15V46.87Z" fill="#FFDE99" stroke="#333333" stroke-miterlimit="10"/>
<path d="M36.28 46.87H40.4399V32.15C39.9041 32.1394 39.3714 32.2344 38.8723 32.4297C38.3732 32.625 37.9176 32.9167 37.5312 33.2882C37.1449 33.6596 36.8356 34.1035 36.6208 34.5946C36.4061 35.0856 36.2904 35.6141 36.28 36.15V46.87Z" fill="#FFDE99" stroke="#333333" stroke-miterlimit="10"/>
<path d="M69.9199 46.87H74.0798V34.15C74.08 33.8805 74.0259 33.6137 73.9204 33.3657C73.8149 33.1177 73.6603 32.8936 73.4661 32.7068C73.2718 32.52 73.0418 32.3744 72.7898 32.2787C72.5378 32.183 72.2693 32.1393 72 32.15C71.7307 32.1393 71.4619 32.183 71.21 32.2787C70.958 32.3744 70.728 32.52 70.5337 32.7068C70.3394 32.8936 70.1848 33.1177 70.0793 33.3657C69.9739 33.6137 69.9197 33.8805 69.9199 34.15V46.87Z" fill="#FFDE99" stroke="#333333" stroke-miterlimit="10"/>
<path d="M62.8599 46.87H69.8599V34.67C69.8599 33.29 68.2898 32.16 66.3398 32.16C64.3898 32.16 62.8198 33.29 62.8198 34.67V46.87H62.8599Z" fill="#FF6B00" stroke="#333333" stroke-linecap="round" stroke-linejoin="round"/>
<path d="M68.1299 41.01V36.44C68.1299 35.83 67.3499 35.34 66.3799 35.34C65.4099 35.34 64.6399 35.84 64.6399 36.44V41.01H68.1299Z" fill="#FFDE99" stroke="#333333" stroke-miterlimit="10"/>
<path d="M74.0598 46.87H81.1099V34.67C81.1099 33.29 79.5298 32.16 77.5898 32.16C75.6498 32.16 74.0598 33.29 74.0598 34.67V46.87Z" fill="#FF6B00" stroke="#333333" stroke-linecap="round" stroke-linejoin="round"/>
<path d="M79.3298 41.01V36.44C79.3298 35.83 78.5498 35.34 77.5898 35.34C76.6298 35.34 75.8499 35.84 75.8499 36.44V41.01H79.3298Z" fill="#FFDE99" stroke="#333333" stroke-miterlimit="10"/>
<path d="M51.6499 46.87H58.6499V34.67C58.6499 33.29 57.0699 32.16 55.1299 32.16C53.1899 32.16 51.6099 33.29 51.6099 34.67L51.6499 46.87Z" fill="#FF6B00" stroke="#333333" stroke-linecap="round" stroke-linejoin="round"/>
<path d="M56.9199 41.01V36.44C56.9199 35.83 56.1399 35.34 55.1799 35.34C54.2199 35.34 53.4399 35.84 53.4399 36.44V41.01H56.9199Z" fill="#FFDE99" stroke="#333333" stroke-miterlimit="10"/>
<path d="M40.4399 46.87H47.49V34.67C47.49 33.29 45.91 32.16 43.96 32.16C42.01 32.16 40.4399 33.29 40.4399 34.67V46.87Z" fill="#FF6B00" stroke="#333333" stroke-linecap="round" stroke-linejoin="round"/>
<path d="M45.71 41.01V36.44C45.71 35.83 44.93 35.34 43.96 35.34C42.99 35.34 42.23 35.84 42.23 36.44V41.01H45.71Z" fill="#FFDE99" stroke="#333333" stroke-miterlimit="10"/>
<path d="M96.48 36.1399C96.4709 35.6037 96.3559 35.0746 96.1416 34.5829C95.9273 34.0913 95.618 33.6468 95.2314 33.2751C94.8449 32.9034 94.3886 32.6118 93.8889 32.417C93.3893 32.2221 92.856 32.128 92.3198 32.1399V46.8499H96.48V36.1399Z" fill="#FFDE99" stroke="#333333" stroke-miterlimit="10"/>
<path d="M92.3198 34.66C92.3198 33.28 90.7398 32.15 88.7998 32.15C86.8598 32.15 85.28 33.28 85.28 34.66V46.86H92.28L92.3198 34.66Z" fill="#FF6B00" stroke="#333333" stroke-linecap="round" stroke-linejoin="round"/>
<path d="M90.54 41.01V36.44C90.54 35.83 89.7598 35.34 88.7998 35.34C87.8398 35.34 87.0498 35.84 87.0498 36.44V41.01H90.54Z" fill="#FFDE99" stroke="#333333" stroke-miterlimit="10"/>
<path d="M47.49 46.87H51.6499V34.15C51.6501 33.8805 51.596 33.6137 51.4905 33.3657C51.385 33.1177 51.2304 32.8936 51.0361 32.7068C50.8419 32.52 50.6118 32.3744 50.3599 32.2787C50.1079 32.183 49.8391 32.1393 49.5698 32.15C49.3005 32.1393 49.032 32.183 48.78 32.2787C48.5281 32.3744 48.298 32.52 48.1038 32.7068C47.9095 32.8936 47.7549 33.1177 47.6494 33.3657C47.5439 33.6137 47.4898 33.8805 47.49 34.15V46.87Z" fill="#FFDE99" stroke="#333333" stroke-miterlimit="10"/>
<path d="M81.1199 46.87H85.28V34.15C85.2802 33.8805 85.2258 33.6137 85.1204 33.3657C85.0149 33.1177 84.8605 32.8936 84.6663 32.7068C84.472 32.52 84.242 32.3744 83.99 32.2787C83.738 32.183 83.4692 32.1393 83.2 32.15C82.9307 32.1393 82.6619 32.183 82.4099 32.2787C82.158 32.3744 81.9279 32.52 81.7336 32.7068C81.5394 32.8936 81.385 33.1177 81.2795 33.3657C81.1741 33.6137 81.1197 33.8805 81.1199 34.15V46.87Z" fill="#FFDE99" stroke="#333333" stroke-miterlimit="10"/>
<path d="M69.9199 69.87H74.0798V54.53H69.9199V69.87Z" fill="#FFDE99" stroke="#333333" stroke-miterlimit="10"/>
<path d="M58.7 69.87H62.8599V54.53H58.7V69.87Z" fill="#FFDE99" stroke="#333333" stroke-miterlimit="10"/>
<path d="M58.7 54.53H62.8599V44.65C62.8599 43.8 61.93 43.1 60.78 43.1C59.63 43.1 58.7 43.8 58.7 44.65V54.53Z" fill="#FFDE99" stroke="#333333" stroke-miterlimit="10"/>
<path d="M36.28 54.53H40.4399V43.11C38.1499 43.11 36.28 44.5 36.28 46.2V54.53Z" fill="#FFDE99" stroke="#333333" stroke-miterlimit="10"/>
<path d="M69.9199 54.53H74.0798V44.65C74.0798 43.8 73.15 43.1 72 43.1C70.85 43.1 69.9199 43.8 69.9199 44.65V54.53Z" fill="#FFDE99" stroke="#333333" stroke-miterlimit="10"/>
<path d="M47.49 69.87H51.6499V54.53H47.49V69.87Z" fill="#FFDE99" stroke="#333333" stroke-miterlimit="10"/>
<path d="M81.1199 69.87H85.28V54.53H81.1199V69.87Z" fill="#FFDE99" stroke="#333333" stroke-miterlimit="10"/>
<path d="M36.28 69.87H40.4399V54.53H36.28V69.87Z" fill="#FFDE99" stroke="#333333" stroke-miterlimit="10"/>
<path d="M74.0598 69.87H81.1099V54.53H74.0598V69.87Z" fill="#FF6B00" stroke="#333333" stroke-linecap="round" stroke-linejoin="round"/>
<path d="M79.97 58.03C79.97 57.21 78.8998 56.55 77.5898 56.55C76.2798 56.55 75.2 57.21 75.2 58.03H74.0598V69.8701H81.1099V58.03H79.97Z" fill="#FF6B00" stroke="#333333" stroke-linecap="round" stroke-linejoin="round"/>
<path d="M79.3298 68.46V63.46C79.3298 62.78 78.5498 62.24 77.5898 62.24C76.6298 62.24 75.8499 62.78 75.8499 63.46V68.46H79.3298Z" fill="#FFDE99" stroke="#333333" stroke-miterlimit="10"/>
<path d="M92.3198 69.87H96.48V54.53H92.3198V69.87Z" fill="#FFDE99" stroke="#333333" stroke-miterlimit="10"/>
<path d="M85.28 69.87H92.28V54.53H85.28V69.87Z" fill="#FF6B00" stroke="#333333" stroke-linecap="round" stroke-linejoin="round"/>
<path d="M91.1799 58.03C91.1799 57.21 90.1198 56.55 88.7998 56.55C87.4798 56.55 86.4199 57.21 86.4199 58.03H85.28V69.8701H92.28V58.03H91.1799Z" fill="#FF6B00" stroke="#333333" stroke-linecap="round" stroke-linejoin="round"/>
<path d="M90.54 68.46V63.46C90.54 62.78 89.76 62.24 88.79 62.24C87.82 62.24 87.0498 62.78 87.0498 63.46V68.46H90.54Z" fill="#FFDE99" stroke="#333333" stroke-miterlimit="10"/>
<path d="M62.8599 69.87H69.8599V54.53H62.8599V69.87Z" fill="#FF6B00" stroke="#333333" stroke-linecap="round" stroke-linejoin="round"/>
<path d="M68.76 58.03C68.76 57.21 67.6999 56.55 66.3799 56.55C65.0599 56.55 64 57.21 64 58.03H62.8599V69.8701H69.8599V58.03H68.76Z" fill="#FF6B00" stroke="#333333" stroke-linecap="round" stroke-linejoin="round"/>
<path d="M68.1299 68.46V63.46C68.1299 62.78 67.3499 62.24 66.3799 62.24C65.4099 62.24 64.6399 62.78 64.6399 63.46V68.46H68.1299Z" fill="#FFDE99" stroke="#333333" stroke-miterlimit="10"/>
<path d="M62.8599 54.5299H69.8599V45.0599C69.8599 43.9799 68.2898 43.0599 66.3398 43.0599C64.3898 43.0599 62.8198 43.9399 62.8198 45.0599V54.5299H62.8599Z" fill="#FF6B00" stroke="#333333" stroke-linecap="round" stroke-linejoin="round"/>
<path d="M68.1299 53.11V48.11C68.1299 47.43 67.3499 46.89 66.3799 46.89C65.4099 46.89 64.6399 47.43 64.6399 48.11V53.11H68.1299Z" fill="#FFDE99" stroke="#333333" stroke-miterlimit="10"/>
<path d="M74.0598 54.5299H81.1099V45.0599C81.1099 43.9799 79.5298 43.0599 77.5898 43.0599C75.6498 43.0599 74.0598 43.9399 74.0598 45.0599V54.5299Z" fill="#FF6B00" stroke="#333333" stroke-linecap="round" stroke-linejoin="round"/>
<path d="M79.3298 53.11V48.11C79.3298 47.43 78.5498 46.89 77.5898 46.89C76.6298 46.89 75.8499 47.43 75.8499 48.11V53.11H79.3298Z" fill="#FFDE99" stroke="#333333" stroke-miterlimit="10"/>
<path d="M51.6499 54.5299H58.6499V45.0599C58.6499 43.9799 57.0699 43.0599 55.1299 43.0599C53.1899 43.0599 51.6099 43.9399 51.6099 45.0599L51.6499 54.5299Z" fill="#FF6B00" stroke="#333333" stroke-linecap="round" stroke-linejoin="round"/>
<path d="M56.9199 53.11V48.11C56.9199 47.43 56.1399 46.89 55.1799 46.89C54.2199 46.89 53.4399 47.43 53.4399 48.11V53.11H56.9199Z" fill="#FFDE99" stroke="#333333" stroke-miterlimit="10"/>
<path d="M40.4399 54.5299H47.49V45.0599C47.49 43.9799 45.91 43.0599 43.96 43.0599C42.01 43.0599 40.4399 43.9399 40.4399 45.0599V54.5299Z" fill="#FF6B00" stroke="#333333" stroke-linecap="round" stroke-linejoin="round"/>
<path d="M45.71 53.11V48.11C45.71 47.43 44.93 46.89 43.96 46.89C42.99 46.89 42.23 47.43 42.23 48.11V53.11H45.71Z" fill="#FFDE99" stroke="#333333" stroke-miterlimit="10"/>
<path d="M96.48 46.2C96.48 44.49 94.6198 43.1 92.3198 43.1V54.53H96.48V46.2Z" fill="#FFDE99" stroke="#333333" stroke-miterlimit="10"/>
<path d="M92.3198 45.0599C92.3198 43.9799 90.7498 43.0599 88.7998 43.0599C86.8498 43.0599 85.28 43.9399 85.28 45.0599V54.5299H92.28L92.3198 45.0599Z" fill="#FF6B00" stroke="#333333" stroke-linecap="round" stroke-linejoin="round"/>
<path d="M90.54 53.11V48.11C90.54 47.43 89.7598 46.89 88.7998 46.89C87.8398 46.89 87.0498 47.43 87.0498 48.11V53.11H90.54Z" fill="#FFDE99" stroke="#333333" stroke-miterlimit="10"/>
<path d="M51.6499 69.87H58.6499V54.53H51.6499V69.87Z" fill="#FF6B00" stroke="#333333" stroke-linecap="round" stroke-linejoin="round"/>
<path d="M57.5498 58.03C57.5498 57.21 56.4799 56.55 55.1699 56.55C53.8599 56.55 52.79 57.21 52.79 58.03H51.6499V69.8701H58.6499V58.03H57.5498Z" fill="#FF6B00" stroke="#333333" stroke-linecap="round" stroke-linejoin="round"/>
<path d="M56.9199 68.46V63.46C56.9199 62.78 56.1399 62.24 55.1799 62.24C54.2199 62.24 53.4399 62.78 53.4399 63.46V68.46H56.9199Z" fill="#FFDE99" stroke="#333333" stroke-miterlimit="10"/>
<path d="M40.4399 69.87H47.49V54.53H40.4399V69.87Z" fill="#FF6B00" stroke="#333333" stroke-linecap="round" stroke-linejoin="round"/>
<path d="M46.3499 58.03C46.3499 57.21 45.28 56.55 43.96 56.55C42.64 56.55 41.5798 57.21 41.5798 58.03H40.4399V69.8701H47.49V58.03H46.3499Z" fill="#FF6B00" stroke="#333333" stroke-linecap="round" stroke-linejoin="round"/>
<path d="M45.71 68.46V63.46C45.71 62.78 44.93 62.24 43.96 62.24C42.99 62.24 42.23 62.78 42.23 63.46V68.46H45.71Z" fill="#FFDE99" stroke="#333333" stroke-miterlimit="10"/>
<path d="M47.49 54.53H51.6499V44.65C51.6499 43.8 50.7098 43.1 49.5698 43.1C48.4298 43.1 47.49 43.8 47.49 44.65V54.53Z" fill="#FFDE99" stroke="#333333" stroke-miterlimit="10"/>
<path d="M81.1199 54.53H85.28V44.65C85.28 43.8 84.35 43.1 83.2 43.1C82.05 43.1 81.1199 43.8 81.1199 44.65V54.53Z" fill="#FFDE99" stroke="#333333" stroke-miterlimit="10"/>
<path d="M66.3799 8.06999V4.98999" stroke="#333333" stroke-linecap="round" stroke-linejoin="round"/>
<path d="M55.1799 16.11V13.03" stroke="#333333" stroke-linecap="round" stroke-linejoin="round"/>
<path d="M77.5898 16.11V13.03" stroke="#333333" stroke-linecap="round" stroke-linejoin="round"/>
<path d="M31.9199 69.87H100.92" stroke="#333333" stroke-linecap="round" stroke-linejoin="round"/>
</svg>
